<svg xmlns="http://www.w3.org/2000/svg" xmlns:xlink="http://www.w3.org/1999/xlink" width="67" height="40" viewBox="0 0 67 40">
  <defs>
    <clipPath id="clip-path">
      <path id="Mask" d="M8,0H59a8,8,0,0,1,8,8V32a8,8,0,0,1-8,8H8a8,8,0,0,1-8-8V8A8,8,0,0,1,8,0Z" fill="#fff" stroke="#d8d8d8" stroke-miterlimit="10" stroke-width="1"/>
    </clipPath>
  </defs>
  <g id="Logo" clip-path="url(#clip-path)">
    <g id="Apple_Pay" data-name="Apple Pay" transform="translate(8 8)">
      <path id="Fill_17" data-name="Fill 17" d="M4.972,18.553c-1.18,0-2.072-1.111-2.957-2.349A11.5,11.5,0,0,1,.158,11.73,7.132,7.132,0,0,1,.8,6.856,4.735,4.735,0,0,1,4.764,4.531h.05a5.473,5.473,0,0,1,1.925.477,3.728,3.728,0,0,0,1.185.33A3.8,3.8,0,0,0,9.07,5.011a6.35,6.35,0,0,1,2.215-.539c.1,0,.206,0,.305.015a4.487,4.487,0,0,1,3.5,1.84l-.009.005a4.177,4.177,0,0,0-2.061,3.524,4.124,4.124,0,0,0,2.565,3.753l.006,0,0,.013a10.089,10.089,0,0,1-1.322,2.625c-.746,1.058-1.592,2.257-2.931,2.28h-.058a3.377,3.377,0,0,1-1.422-.347,3.929,3.929,0,0,0-1.681-.39,4.162,4.162,0,0,0-1.758.4,3.719,3.719,0,0,1-1.379.358ZM7.966,4.283h0c-.065,0-.13,0-.193-.007a3.789,3.789,0,0,1,1.016-2.87A4.324,4.324,0,0,1,11.609,0a4,4,0,0,1-1,2.962A3.638,3.638,0,0,1,7.966,4.283Z" transform="translate(0.103 0.183)" fill="#0b0b09"/>
      <path id="Fill_18" data-name="Fill 18" d="M1.205,17H0V.326C.5.242,1.033.168,1.641.1A17.982,17.982,0,0,1,3.614,0,8.646,8.646,0,0,1,6.266.363,4.8,4.8,0,0,1,8.1,1.4a4.292,4.292,0,0,1,.961,1.426,4.919,4.919,0,0,1,.346,1.9,5.178,5.178,0,0,1-.473,2.278,4.772,4.772,0,0,1-1.294,1.64,5.492,5.492,0,0,1-1.948.989,8.885,8.885,0,0,1-2.46.325,9.977,9.977,0,0,1-2.024-.175V17ZM3.562,1a13.51,13.51,0,0,0-1.409.063c-.387.041-.705.087-.948.137V8.737a5.4,5.4,0,0,0,.974.175c.353.033.741.049,1.152.049A5.478,5.478,0,0,0,6.906,7.91,3.784,3.784,0,0,0,8.174,4.832a4.061,4.061,0,0,0-.333-1.7,3.085,3.085,0,0,0-.948-1.19,4.374,4.374,0,0,0-1.461-.7A6.929,6.929,0,0,0,3.562,1Z" transform="translate(20.395 1.477)" fill="#0b0b09"/>
      <path id="Fill_19" data-name="Fill 19" d="M3.562,12.567a4.012,4.012,0,0,1-1.576-.288,3.24,3.24,0,0,1-1.115-.751,3.067,3.067,0,0,1-.653-1.064A3.528,3.528,0,0,1,0,9.263a3.673,3.673,0,0,1,1.832-3.28A9.983,9.983,0,0,1,7.05,4.88l.3,0V4.556a7.721,7.721,0,0,0-.089-1.089,3.384,3.384,0,0,0-.4-1.164,2.542,2.542,0,0,0-.923-.926A3.2,3.2,0,0,0,4.279,1,5.414,5.414,0,0,0,2.7,1.239,5.378,5.378,0,0,0,1.282,1.9L.9,1.026A5.753,5.753,0,0,1,2.588.238,6.875,6.875,0,0,1,4.407,0,4.484,4.484,0,0,1,6.5.426a3.461,3.461,0,0,1,1.268,1.1,4.076,4.076,0,0,1,.628,1.514,8.607,8.607,0,0,1,.167,1.665V9.437c0,.49.008.979.025,1.453a9.317,9.317,0,0,0,.154,1.4H7.61l-.179-1.7H7.38a4.348,4.348,0,0,1-.589.7,4.651,4.651,0,0,1-.832.638,4.5,4.5,0,0,1-1.076.464A4.765,4.765,0,0,1,3.562,12.567ZM6.956,5.853c-.523,0-1.075.027-1.639.08a7.577,7.577,0,0,0-1.96.438,3.764,3.764,0,0,0-1.486.989,2.484,2.484,0,0,0-.59,1.727,2.282,2.282,0,0,0,.743,1.877,2.6,2.6,0,0,0,1.666.6,4.126,4.126,0,0,0,1.332-.2,3.526,3.526,0,0,0,1.025-.538,3.48,3.48,0,0,0,.731-.763,3.586,3.586,0,0,0,.448-.876,3.364,3.364,0,0,0,.128-.727v-2.6C7.231,5.855,7.1,5.853,6.956,5.853Z" transform="translate(30.82 6.184)" fill="#0b0b09"/>
      <path id="Fill_20" data-name="Fill 20" d="M1.281,0,4.407,7.811q.256.651.487,1.339t.41,1.264h.051q.179-.551.41-1.239T6.278,7.76L9.2,0H10.48L6.919,8.812q-.539,1.4-1.013,2.541t-.961,2.053a14.683,14.683,0,0,1-.987,1.615,6.775,6.775,0,0,1-1.115,1.226,6.071,6.071,0,0,1-1.319.914q-.6.288-.807.363l-.41-.977a10.2,10.2,0,0,0,1.025-.526,5.576,5.576,0,0,0,1.1-.851,10.243,10.243,0,0,0,1.012-1.189,8.278,8.278,0,0,0,.987-1.79,1.971,1.971,0,0,0,.154-.526,1.48,1.48,0,0,0-.154-.526L0,0H1.281" transform="translate(40.453 6.459)" fill="#0b0b09"/>
    </g>
  </g>
</svg>
