<svg xmlns="http://www.w3.org/2000/svg" width="16" height="15" viewBox="0 0 16 15">
  <path id="Icon_Calendar" data-name="Icon Calendar" d="M14.546,15H1.454A1.444,1.444,0,0,1,0,13.571V2.858A1.444,1.444,0,0,1,1.454,1.428H2.909V3.571H4.363V0H5.819V1.428h4.363V3.571h1.454V0H13.09V1.428h1.455A1.444,1.444,0,0,1,16,2.858V13.571A1.444,1.444,0,0,1,14.546,15Zm-8-5v2.858H9.455V10ZM2.182,10v2.858h2.91V10Zm8.727-4.286V8.572h2.91V5.714Zm-4.363,0V8.572H9.455V5.714Zm-4.364,0V8.572h2.91V5.714Z" fill="#8a8a8f"/>
</svg>
