<svg xmlns="http://www.w3.org/2000/svg" width="41" height="16" viewBox="0 0 41 16">
  <path id="Icon_Car" data-name="Icon Car" d="M-30.685,13.034a3.346,3.346,0,0,0,.03-.426,3.4,3.4,0,0,0-3.4-3.394,3.374,3.374,0,0,0-2.4.994,3.368,3.368,0,0,0-.994,2.4c0,.1.007.2.014.29a3.385,3.385,0,0,0,1.081,2.2,3.381,3.381,0,0,0,2.3.9A3.4,3.4,0,0,0-30.685,13.034Zm-2.087,1.274a2.115,2.115,0,0,1-.986.409v-.979a1.2,1.2,0,0,0,.3-.12Zm-1.573-.571v.978a2.148,2.148,0,0,1-.986-.408l.691-.69A1.166,1.166,0,0,0-34.345,13.737Zm-.71-.535-.7.7a2.108,2.108,0,0,1-.406-.989h.976A1.127,1.127,0,0,0-35.055,13.2Zm2.7.693-.693-.693a1.138,1.138,0,0,0,.122-.294h.984A2.112,2.112,0,0,1-32.353,13.894Zm-2.706-1.873a1.2,1.2,0,0,0-.123.3h-.976a2.122,2.122,0,0,1,.407-.99Zm3.116.3h-.976a1.146,1.146,0,0,0-.123-.3l.691-.692A2.108,2.108,0,0,1-31.944,12.319Zm-2.4-.841a1.132,1.132,0,0,0-.3.125l-.691-.691a2.13,2.13,0,0,1,.992-.41Zm1.58-.566-.691.691a1.212,1.212,0,0,0-.3-.125V10.5A2.1,2.1,0,0,1-32.765,10.913Zm28.276,2.121a3.326,3.326,0,0,0,.03-.426,3.394,3.394,0,0,0-3.4-3.394,3.393,3.393,0,0,0-3.395,3.393c0,.1.006.194.013.29A3.394,3.394,0,0,0-7.854,16,3.393,3.393,0,0,0-4.489,13.034Zm-7.294.651h0a3.981,3.981,0,0,1-.133-.733c-.007-.105-.016-.225-.016-.342A4.082,4.082,0,0,1-7.855,8.533a4.082,4.082,0,0,1,4.078,4.076,3.829,3.829,0,0,1-.036.51c-.009.075-.023.149-.038.22l-.006.034a9.616,9.616,0,0,0,3.218-.749A4.874,4.874,0,0,0-.026,9.9l-.026-.1A18.92,18.92,0,0,0-.684,7.85C-.79,7.565-1.531,6.94-5.3,5.958a40.932,40.932,0,0,0-4.909-1.022,30.54,30.54,0,0,1-4.605-2.624,13.281,13.281,0,0,0-2.108-1.24A20.748,20.748,0,0,0-23.721,0a30.977,30.977,0,0,0-7.29.941l-.3.069a47.574,47.574,0,0,0-4.493,1.6c-1.005.391-1.874.729-2.291.858a1.375,1.375,0,0,0-.59.325,1.335,1.335,0,0,1-.83.344.814.814,0,0,0-.693.808v2.51A2.383,2.383,0,0,0-41,9.328a2.97,2.97,0,0,0,1.326,2.646c.062.026,1.526.634,1.546.634a4.044,4.044,0,0,1,1.2-2.88,4.047,4.047,0,0,1,2.882-1.2,4.081,4.081,0,0,1,4.078,4.075,3.808,3.808,0,0,1-.036.51c0,.036-.011.072-.018.106,0,.017-.006.034-.009.051l16.124.36,2.127.048ZM-19.692,1.492a12.136,12.136,0,0,1,5.657,2.431c-.07.03-.661.329-.531,1.386l-7.56-.231-.97-3.973A21.932,21.932,0,0,1-19.692,1.492Zm-4.653-.387.625,3.857-6.889-.231-.347-1.246,1.017-1.641A16.231,16.231,0,0,1-24.645,1.1Zm-8.229,3.6h-1.919a1.063,1.063,0,0,1,.56-1.139c.712-.369,1.859-.929,3.278-1.494Z" transform="translate(41)" fill="#8a8a8f"/>
</svg>
