<svg xmlns="http://www.w3.org/2000/svg" width="16" height="15" viewBox="0 0 16 15">
  <path id="Icon_Engine" data-name="Icon Engine" d="M12.656,15a1.4,1.4,0,0,1-1.069-.5,7.98,7.98,0,0,0,1.973-1.973,1.4,1.4,0,0,1-.9,2.476ZM7.031,15a7.031,7.031,0,0,1,0-14.063h8V0H16V5.625h-.969V4.687h-8a3.294,3.294,0,1,0,2.29.938h4.34A7.031,7.031,0,0,1,7.031,15ZM1.406,15a1.4,1.4,0,0,1-.9-2.476A7.98,7.98,0,0,0,2.476,14.5,1.4,1.4,0,0,1,1.406,15Zm5.35-4.716h0a2.324,2.324,0,0,1-1.2-.512,2.3,2.3,0,0,0,1.1-.454,1.391,1.391,0,0,0,.375.058.229.229,0,0,0,.034,0l.027,0a1.372,1.372,0,0,1-.135.514l-.2.4Zm1.1-.128v0a2.311,2.311,0,0,0,.159-1.181,1.414,1.414,0,0,0,.26-.358,1.363,1.363,0,0,1,.378.375l.249.377a2.342,2.342,0,0,1-1.045.788ZM4.876,8.888h0a2.331,2.331,0,0,1-.189-.919,2.371,2.371,0,0,1,.039-.383,2.308,2.308,0,0,0,.949.733,1.357,1.357,0,0,0,.174.4,1.379,1.379,0,0,1-.511.139l-.46.027Zm2.155-.451A.469.469,0,1,1,7.5,7.969.469.469,0,0,1,7.031,8.438Zm2.306-.085v0a2.31,2.31,0,0,0-.947-.731,1.371,1.371,0,0,0-.174-.4,1.362,1.362,0,0,1,.511-.139l.461-.028a2.33,2.33,0,0,1,.189.92,2.3,2.3,0,0,1-.038.381ZM5.79,7.322h0a1.354,1.354,0,0,1-.377-.375L5.162,6.57A2.333,2.333,0,0,1,6.21,5.782a2.3,2.3,0,0,0-.16,1.183,1.428,1.428,0,0,0-.26.357Zm1.617-.7h0a1.39,1.39,0,0,0-.376-.057L7,6.566l-.027,0a1.371,1.371,0,0,1,.135-.513l.2-.4a2.323,2.323,0,0,1,1.2.512,2.3,2.3,0,0,0-1.1.454ZM.5,3.413h0A1.4,1.4,0,1,1,2.476,1.44,7.979,7.979,0,0,0,.5,3.412Z" transform="translate(0)" fill="#8a8a8f"/>
</svg>
