<svg xmlns="http://www.w3.org/2000/svg" width="11" height="16" viewBox="0 0 11 16">
  <path id="Icon_Hand" data-name="Icon Hand" d="M10.988,8.42,11,3.475a.738.738,0,0,0-.656-.738.721.721,0,0,0-.8.708V7.774a.388.388,0,0,1-.777,0V1.817a.738.738,0,0,0-.656-.738.721.721,0,0,0-.8.708V7.093a.388.388,0,0,1-.776,0V.741A.737.737,0,0,0,5.881,0a.721.721,0,0,0-.8.707V7.774a.388.388,0,0,1-.776,0V2.528A.738.738,0,0,0,3.65,1.79a.721.721,0,0,0-.8.708v7.739a.169.169,0,0,1-.318.075l-.682-1.3A1,1,0,0,0,.544,8.562.938.938,0,0,0,.105,9.843l1.823,3.5.441.841A3.43,3.43,0,0,0,5.411,16h2.16a3.376,3.376,0,0,0,3.388-3.049Z" fill="#fff"/>
</svg>
