<svg xmlns="http://www.w3.org/2000/svg" width="11" height="16" viewBox="0 0 11 16">
  <path id="Icon_Lock" data-name="Icon Lock" d="M10,16H1a.987.987,0,0,1-1-.97V7.273A.987.987,0,0,1,1,6.3h.5V3.879A3.945,3.945,0,0,1,5.5,0a3.946,3.946,0,0,1,4,3.879V6.3H10a.987.987,0,0,1,1,.97V15.03A.987.987,0,0,1,10,16ZM5.5,8.437A1.48,1.48,0,0,0,4,9.891a1.459,1.459,0,0,0,1,1.365v2.707H6V11.256A1.459,1.459,0,0,0,7,9.891,1.48,1.48,0,0,0,5.5,8.437ZM5.5.969a2.959,2.959,0,0,0-3,2.91V6.3h6V3.879A2.959,2.959,0,0,0,5.5.969Z" fill="#fff"/>
</svg>
