<svg id="Icon_Marker" data-name="Icon Marker" xmlns="http://www.w3.org/2000/svg" width="52" height="64" viewBox="0 0 52 64">
  <path id="Icon_Marker-2" data-name="Icon Marker" d="M26,64a2.463,2.463,0,0,1-2.307-1.84c-.626-2.152-2.407-6.763-4.671-8.806a19.1,19.1,0,0,0-1.8-1.263A48.937,48.937,0,0,1,6.762,43.348a26,26,0,1,1,38.475,0,48.937,48.937,0,0,1-10.463,8.744,19.1,19.1,0,0,0-1.8,1.263c-2.265,2.045-4.046,6.654-4.671,8.806A2.471,2.471,0,0,1,26,64Zm0-45.032a7.113,7.113,0,1,0,7.091,7.114A7.11,7.11,0,0,0,26,18.968Z" fill="#0b4b89"/>
</svg>
