<svg id="Icon" xmlns="http://www.w3.org/2000/svg" width="40" height="40" viewBox="0 0 40 40">
  <path id="Background" d="M8,0H32a8,8,0,0,1,8,8V32a8,8,0,0,1-8,8H8a8,8,0,0,1-8-8V8A8,8,0,0,1,8,0Z" fill="#5ac8fa"/>
  <path id="Icon_Discount" data-name="Icon Discount" d="M10.072,20a1.349,1.349,0,0,1-.991-.433l-.347-.381a1.346,1.346,0,0,0-1.514-.329l-.481.2a1.35,1.35,0,0,1-.528.108,1.329,1.329,0,0,1-1.274-.94l-.147-.491A1.326,1.326,0,0,0,3.569,16.8l-.523-.021a1.337,1.337,0,0,1-.987-.494,1.279,1.279,0,0,1-.267-1.022l.088-.5A1.291,1.291,0,0,0,1.2,13.391l-.46-.242a1.312,1.312,0,0,1-.669-.858,1.283,1.283,0,0,1,.209-1.043l.3-.418A1.284,1.284,0,0,0,.566,9.31L.257,8.9A1.277,1.277,0,0,1,.029,7.857,1.3,1.3,0,0,1,.684,6.99l.455-.25A1.29,1.29,0,0,0,1.8,5.367l-.1-.5a1.283,1.283,0,0,1,.252-1.028,1.336,1.336,0,0,1,.979-.508L3.457,3.3a1.312,1.312,0,0,0,1.2-.955l.138-.5a1.339,1.339,0,0,1,1.79-.86l.485.2a1.347,1.347,0,0,0,.507.1,1.343,1.343,0,0,0,1-.447L8.927.449A1.344,1.344,0,0,1,10.918.433l.347.381a1.339,1.339,0,0,0,.99.435,1.337,1.337,0,0,0,.524-.106l.481-.2a1.349,1.349,0,0,1,.529-.108,1.329,1.329,0,0,1,1.274.939l.146.491A1.326,1.326,0,0,0,16.43,3.2l.523.021a1.337,1.337,0,0,1,.987.494,1.28,1.28,0,0,1,.267,1.023l-.087.5A1.288,1.288,0,0,0,18.8,6.609l.46.242a1.312,1.312,0,0,1,.67.858,1.284,1.284,0,0,1-.21,1.044l-.3.418a1.284,1.284,0,0,0,.013,1.52l.31.414a1.286,1.286,0,0,1-.427,1.906l-.456.249a1.289,1.289,0,0,0-.661,1.373l.1.5a1.283,1.283,0,0,1-.252,1.029,1.335,1.335,0,0,1-.978.508l-.523.029a1.315,1.315,0,0,0-1.205.955l-.138.5a1.34,1.34,0,0,1-1.79.861l-.485-.2a1.35,1.35,0,0,0-1.51.348l-.343.385A1.332,1.332,0,0,1,10.072,20ZM12.708,9.679a2.016,2.016,0,1,0,2.058,2.016A2.039,2.039,0,0,0,12.708,9.679Zm-.015-3.354a.5.5,0,0,0-.386.178l-5.4,6.372a.486.486,0,0,0,.067.693.511.511,0,0,0,.32.112.5.5,0,0,0,.387-.178l5.4-6.373a.486.486,0,0,0-.068-.692A.512.512,0,0,0,12.693,6.324Zm-5.409-.04A2.017,2.017,0,1,0,9.341,8.3,2.04,2.04,0,0,0,7.284,6.285Zm5.424,6.246a.836.836,0,1,1,.853-.836A.846.846,0,0,1,12.708,12.531ZM7.287,9.138A.836.836,0,1,1,8.14,8.3.846.846,0,0,1,7.287,9.138Z" transform="translate(10 10)" fill="#fff"/>
</svg>
