<svg xmlns="http://www.w3.org/2000/svg" width="13" height="16" viewBox="0 0 13 16">
  <path id="Icon_Notification" data-name="Icon Notification" d="M4.3,14.451h4.16A1.957,1.957,0,0,1,6.376,16,1.957,1.957,0,0,1,4.3,14.451Zm2.079-1.032H.887a1.33,1.33,0,0,1-.5-.1.66.66,0,0,1-.128-1.129l.684-.5a3.7,3.7,0,0,0,1.626-3.1V5.341A4.249,4.249,0,0,1,5.855,1.11V0H6.9V1.068a4.229,4.229,0,0,1,3.532,4.273V8.593a3.7,3.7,0,0,0,1.626,3.1l.684.5a.66.66,0,0,1-.129,1.129,1.326,1.326,0,0,1-.5.1Z" transform="translate(0)" fill="#fff"/>
</svg>
