<svg id="Icon" xmlns="http://www.w3.org/2000/svg" width="40" height="40" viewBox="0 0 40 40">
  <path id="Background" d="M8,0H32a8,8,0,0,1,8,8V32a8,8,0,0,1-8,8H8a8,8,0,0,1-8-8V8A8,8,0,0,1,8,0Z" fill="#0b4b89"/>
  <path id="Icon_Car" data-name="Icon Car" d="M14.223,20a.9.9,0,0,1-.888-.9v-.9H2.666v.9a.9.9,0,0,1-.889.9H.888A.9.9,0,0,1,0,19.1V11.893L1.849,6.5a1.335,1.335,0,0,1,1.262-.91h9.779a1.327,1.327,0,0,1,1.262.91L16,11.893V19.1a.9.9,0,0,1-.888.9ZM11.111,2.433c0-.9,1.334-2.433,1.334-2.433s1.333,1.531,1.333,2.433a1.333,1.333,0,1,1-2.667,0Zm-4.444,0C6.666,1.531,8,0,8,0S9.332,1.531,9.332,2.433a1.333,1.333,0,1,1-2.666,0Zm-4.444,0C2.222,1.531,3.554,0,3.554,0S4.889,1.531,4.889,2.433a1.333,1.333,0,1,1-2.667,0Z" transform="translate(12 10)" fill="#fff"/>
</svg>
