<svg xmlns="http://www.w3.org/2000/svg" xmlns:xlink="http://www.w3.org/1999/xlink" width="229" height="103.841" viewBox="0 0 229 103.841">
  <defs>
    <filter id="Icon_Marker" x="203" y="75" width="26" height="28" filterUnits="userSpaceOnUse">
      <feOffset dy="3" input="SourceAlpha"/>
      <feGaussianBlur stdDeviation="2" result="blur"/>
      <feFlood flood-opacity="0.145"/>
      <feComposite operator="in" in2="blur"/>
      <feComposite in="SourceGraphic"/>
    </filter>
    <filter id="Oval" x="0" y="0" width="42" height="42" filterUnits="userSpaceOnUse">
      <feOffset input="SourceAlpha"/>
      <feGaussianBlur stdDeviation="5" result="blur-2"/>
      <feFlood flood-opacity="0.2"/>
      <feComposite operator="in" in2="blur-2"/>
      <feComposite in="SourceGraphic"/>
    </filter>
  </defs>
  <g id="Route" transform="translate(15 10)">
    <path id="Path" d="M8.334,21.936l8.276,11.387q.058.079.118.157L37.383,60.032l21.3-15.2A6,6,0,0,0,60.034,36.4L49.323,21.8C59.1,14.355,74.032-7.113,81.877,2.381c12.652,15.312,64.191,54.477,65.86,61.2,3.218,12.966-14.975,13.961-8.82,19.674,17.534,16.272,43.943,5.458,54.446-2.485" transform="translate(6.717 0.594)" fill="none" stroke="#0b4b89" stroke-linecap="round" stroke-miterlimit="10" stroke-width="3"/>
    <g transform="matrix(1, 0, 0, 1, -15, -10)" filter="url(#Icon_Marker)">
      <path id="Icon_Marker-2" data-name="Icon Marker" d="M6.379,15.54a5.406,5.406,0,0,0-1.257-2.2C4.551,12.861,0,10.808,0,6.521A6.773,6.773,0,0,1,7,0a6.774,6.774,0,0,1,7,6.521c0,4.288-4.551,6.34-5.122,6.818a5.4,5.4,0,0,0-1.257,2.2.649.649,0,0,1-1.242,0Z" transform="translate(209 78)" fill="#ff3b30"/>
    </g>
    <g transform="matrix(1, 0, 0, 1, -15, -10)" filter="url(#Oval)">
      <g id="Oval-2" data-name="Oval" transform="translate(15 15)" fill="#ff3b30" stroke-miterlimit="10">
        <path d="M 6 11 C 3.242990016937256 11 1 8.757010459899902 1 6 C 1 3.242990016937256 3.242990016937256 1 6 1 C 8.757010459899902 1 11 3.242990016937256 11 6 C 11 8.757010459899902 8.757010459899902 11 6 11 Z" stroke="none"/>
        <path d="M 6 2 C 3.794389724731445 2 2 3.794389724731445 2 6 C 2 8.205610275268555 3.794389724731445 10 6 10 C 8.205610275268555 10 10 8.205610275268555 10 6 C 10 3.794389724731445 8.205610275268555 2 6 2 M 6 0 C 9.31371021270752 0 12 2.68628978729248 12 6 C 12 9.31371021270752 9.31371021270752 12 6 12 C 2.68628978729248 12 0 9.31371021270752 0 6 C 0 2.68628978729248 2.68628978729248 0 6 0 Z" stroke="none" fill="#fff"/>
      </g>
    </g>
  </g>
</svg>
