<svg xmlns="http://www.w3.org/2000/svg" width="12" height="16" viewBox="0 0 12 16">
  <path id="Icon_Seat" data-name="Icon Seat" d="M-.44,16v-.534H-12V16Zm-.275-.8a.271.271,0,0,0,.275-.266V13.881a1.826,1.826,0,0,0-.571-1.326,1.957,1.957,0,0,0-1.373-.541l-5.355.023a2.267,2.267,0,0,0-.959.219V9.578a8.932,8.932,0,0,0-.257-2.122L-9.98,3.281a.819.819,0,0,0-.8-.615H-10.9V2.133h.275a.542.542,0,0,0,.55-.533V.534A.543.543,0,0,0-10.624,0h-.826A.543.543,0,0,0-12,.534V1.6a.542.542,0,0,0,.55.533v.583a.8.8,0,0,0-.55.751V14.934h0a.235.235,0,0,0,.015.089.274.274,0,0,0,.258.177ZM-3.192,9.6h-.551a3.871,3.871,0,0,1-.3,1.5l.51.2A4.4,4.4,0,0,0-3.192,9.6Zm-.233-1.417A4.659,4.659,0,0,0-7.871,5.067V5.6A4.111,4.111,0,0,1-3.948,8.35Zm2.325.03,1.1-.8-.33-.427-.688.5A5.159,5.159,0,0,0-5.69,2.959l.516-.666-.44-.319L-6.44,3.04a.261.261,0,0,0,0,.319l.826,1.067.44-.32-.465-.6A4.612,4.612,0,0,1-1.581,7.438L-2.2,6.987l-.329.427,1.1.8a.283.283,0,0,0,.165.053A.285.285,0,0,0-1.1,8.213Z" transform="translate(12)" fill="#8a8a8f"/>
</svg>
