<svg id="Icon" xmlns="http://www.w3.org/2000/svg" width="96" height="96" viewBox="0 0 96 96">
  <path id="Background" d="M48,0A48,48,0,1,1,0,48,48,48,0,0,1,48,0Z" fill="#5ac8fa"/>
  <path id="Icon_Trophy" data-name="Icon Trophy" d="M30,40H10V36H30v4Zm-2-6H12V30a2,2,0,0,1,2-2h4V25.82a11.965,11.965,0,0,1-7.392-4.372L.75,13.564A2,2,0,0,1,0,12V4A2,2,0,0,1,2,2H8.556A4.014,4.014,0,0,1,12,0H28a4.014,4.014,0,0,1,3.444,2H38a2,2,0,0,1,2,2v8a1.993,1.993,0,0,1-.75,1.564l-9.858,7.884A11.969,11.969,0,0,1,22,25.82V28h4a2,2,0,0,1,2,2v4ZM32,6v8c0,.046,0,.091-.006.136s-.005.076-.006.114L36,11.04V6ZM4,6v5.04L8.012,14.25c0-.038,0-.075-.006-.112S8,14.046,8,14V6Z" transform="translate(28 28)" fill="#fff"/>
</svg>
