<svg xmlns="http://www.w3.org/2000/svg" width="15" height="16" viewBox="0 0 15 16">
  <path id="Icon_Sun" data-name="Icon Sun" d="M7.5,16a.513.513,0,0,1-.42-.221l-1.415-2.03-2.317.8a.509.509,0,0,1-.468-.073.529.529,0,0,1-.212-.43L2.7,11.553.362,10.811a.519.519,0,0,1-.337-.338A.536.536,0,0,1,.1,10l1.46-2L.1,6a.533.533,0,0,1-.076-.475.519.519,0,0,1,.337-.338L2.7,4.447,2.668,1.958a.529.529,0,0,1,.212-.43.51.51,0,0,1,.3-.1.5.5,0,0,1,.164.028l2.317.8L7.079.221a.51.51,0,0,1,.841,0L9.335,2.251l2.317-.8a.5.5,0,0,1,.468.073.529.529,0,0,1,.212.43L12.3,4.447l2.335.742a.521.521,0,0,1,.337.338A.533.533,0,0,1,14.9,6L13.439,8,14.9,10a.536.536,0,0,1,.077.476.522.522,0,0,1-.337.338l-2.335.742.028,2.489a.526.526,0,0,1-.212.43.51.51,0,0,1-.468.073l-2.317-.8-1.414,2.03A.516.516,0,0,1,7.5,16Zm0-13.107a5.107,5.107,0,0,0,0,10.213,5.107,5.107,0,0,0,0-10.213Zm0,9.164a4.058,4.058,0,0,1,0-8.114,4.058,4.058,0,0,1,0,8.114Z" transform="translate(0 0)" fill="#8a8a8f"/>
</svg>
