<svg xmlns="http://www.w3.org/2000/svg" width="37" height="16" viewBox="0 0 37 16">
  <path id="Icon_Car" data-name="Icon Car" d="M-26.958,12.837a3.3,3.3,0,0,0,.033-.455,3.626,3.626,0,0,0-3.624-3.619,3.626,3.626,0,0,0-3.624,3.619c0,.106.007.211.015.309a3.6,3.6,0,0,0,1.152,2.351A3.615,3.615,0,0,0-30.549,16,3.623,3.623,0,0,0-26.958,12.837Zm-2.566.9a1.713,1.713,0,0,1-.789.328v-.785a.892.892,0,0,0,.236-.095Zm-1.262-.457v.784a1.7,1.7,0,0,1-.789-.327l.554-.553A.9.9,0,0,0-30.785,13.284Zm-.568-.428-.559.558a1.7,1.7,0,0,1-.325-.793h.782A.92.92,0,0,0-31.353,12.856Zm2.165.556-.556-.555a.869.869,0,0,0,.1-.236h.788A1.7,1.7,0,0,1-29.188,13.412Zm-2.17-1.5a.955.955,0,0,0-.1.239h-.782a1.689,1.689,0,0,1,.325-.793Zm2.5.239h-.782a.922.922,0,0,0-.1-.239l.555-.554A1.7,1.7,0,0,1-28.86,12.15Zm-1.925-.672a.918.918,0,0,0-.24.1l-.553-.554a1.7,1.7,0,0,1,.794-.328Zm1.266-.455-.554.554a.916.916,0,0,0-.24-.1v-.782A1.7,1.7,0,0,1-29.519,11.023Zm27.937,1.814a3.466,3.466,0,0,0,.032-.455A3.621,3.621,0,0,0-5.174,8.762,3.621,3.621,0,0,0-8.8,12.381c0,.1.007.206.015.309A3.622,3.622,0,0,0-5.174,16,3.62,3.62,0,0,0-1.582,12.837Zm-9.142.5a.528.528,0,0,0,.528-.527.528.528,0,0,0-.528-.527H-25.2a.528.528,0,0,0-.527.527.528.528,0,0,0,.527.527ZM-26.294,11.9h16.4L-7.322,8.53a.688.688,0,0,1,.552-.273h3.811a.7.7,0,0,1,.653.457l1.092,3.009h.424A.791.791,0,0,0,0,10.934V9.76a.638.638,0,0,0-.637-.636h-.62v-.65A.294.294,0,0,0-1,8.317a.294.294,0,0,0-.02-.3,4.371,4.371,0,0,0-.5-.709,5.015,5.015,0,0,0-.912-.411l-.419-.616a1.32,1.32,0,0,0-1-.572L-12.3,5.244l-2.275-2.921a.875.875,0,0,0-.682-.339l-19.166-.257h-.011a.7.7,0,0,0-.7.643l-.61,6.667h-.6a.652.652,0,0,0-.5.236.642.642,0,0,0-.134.537l.18.913A1.46,1.46,0,0,0-35.378,11.9h.661l1.844-3.164a.7.7,0,0,1,.6-.345h3.5a.7.7,0,0,1,.6.339l1.881,3.17h0Zm-2.969-9.064V5.918h-4.781l.208-3.018a.141.141,0,0,1,.14-.131h0Zm7.464.1V5.918h-5.265l-.879-.878V2.854Zm6.617.084a.279.279,0,0,1,.217.11l1.2,1.58h-.8V5.918h-4.955L-20.2,4.7V2.954ZM-18.8.656a.524.524,0,0,0-.149-.374.527.527,0,0,0-.372-.159L-29.048,0h-.018a.532.532,0,0,0-.517.521.53.53,0,0,0,.522.534l1.035.013,8.7.11A.525.525,0,0,0-18.8.656Z" transform="translate(37)" fill="#8a8a8f"/>
</svg>
