<svg xmlns="http://www.w3.org/2000/svg" width="40.999" height="16" viewBox="0 0 40.999 16">
  <path id="Icon_Car" data-name="Icon Car" d="M5.87,13.145a3.257,3.257,0,1,1,6.486-.41c0,.094-.006.186-.014.278a3.254,3.254,0,0,1-6.473.132Zm25.061-.327a3.091,3.091,0,0,1-.03-.41,3.258,3.258,0,1,1,6.515,0c0,.094-.006.186-.014.279a3.254,3.254,0,0,1-6.472.131Zm-.76-.334H12.793A3.875,3.875,0,0,0,8.929,8.608,5.393,5.393,0,0,0,6.145,9.975a2.7,2.7,0,0,1-.942.578.171.171,0,0,1-.031,0,13.314,13.314,0,0,1-2.507.428H1.21A1.214,1.214,0,0,1,0,9.762,1.23,1.23,0,0,1,1.271,8.548l-.006-.027c0-.014-.005-.027-.009-.043,0-.041-.419-4.01.558-4.307H13.567a.052.052,0,0,1,0-.019A14.488,14.488,0,0,1,14.081.68C14.3.248,15.9,0,18.491,0a65.162,65.162,0,0,1,6.541.379c3.1.322,3.714,1.212,4.312,2.073.527.76,1.027,1.479,3.147,1.787,4.728.688,7.474,1.237,7.514,2a4.234,4.234,0,0,0,.988,1.843c0,.128.1,3.079-.73,3.414a21.672,21.672,0,0,1-2.381.618,3.863,3.863,0,0,0-7.71.371h0ZM21.478,2.048V3.919h7.9L28.571,2.7a2.926,2.926,0,0,0-2.2-1.3l-3.832-.33c-.028,0-.057,0-.085,0A.981.981,0,0,0,21.478,2.048Zm-5.864-.088V3.919H20.5V1.959a.982.982,0,0,0-.98-.98H16.593A.982.982,0,0,0,15.613,1.959Z" fill="#8a8a8f"/>
</svg>
