<svg xmlns="http://www.w3.org/2000/svg" width="13" height="16" viewBox="0 0 13 16">
  <path id="Icon_Tyre" data-name="Icon Tyre" d="M1.12,13.771A13.934,13.934,0,0,1,0,8,13.931,13.931,0,0,1,1.12,2.229C1.787.813,2.67,0,3.546,0s1.76.813,2.426,2.229A13.916,13.916,0,0,1,7.093,8a13.919,13.919,0,0,1-1.121,5.771C5.348,15.1,4.532,15.9,3.712,15.99H3.678A.412.412,0,0,0,3.6,16l-.051,0C2.671,16,1.787,15.188,1.12,13.771ZM5.4,15.986l0,0C6.944,14.551,7.9,11.492,7.9,8S6.939,1.434,5.391.006l1.2.005L6.7.074l.077.041a2.576,2.576,0,0,1,.69.463,1.051,1.051,0,0,1,.1.375,2.018,2.018,0,0,0,.2.669,1.8,1.8,0,0,0,.447.481,1.137,1.137,0,0,1,.315.335,1.075,1.075,0,0,1,0,.393v.006a1.831,1.831,0,0,0,.022.72,1.774,1.774,0,0,0,.354.595,1.144,1.144,0,0,1,.234.373,1.083,1.083,0,0,1-.068.4,1.8,1.8,0,0,0-.1.724,1.757,1.757,0,0,0,.266.649,1.146,1.146,0,0,1,.177.4,1.1,1.1,0,0,1-.119.388,1.792,1.792,0,0,0-.19.707,1.781,1.781,0,0,0,.186.7l0,.007a1.1,1.1,0,0,1,.119.387,1.127,1.127,0,0,1-.175.393,1.771,1.771,0,0,0-.266.653,1.794,1.794,0,0,0,.094.719l0,0a1.09,1.09,0,0,1,.068.4,1.144,1.144,0,0,1-.234.373,1.774,1.774,0,0,0-.354.595,1.831,1.831,0,0,0-.022.72v.005a1.085,1.085,0,0,1,0,.4,1.124,1.124,0,0,1-.315.334,1.816,1.816,0,0,0-.448.481,2.008,2.008,0,0,0-.2.666,1.068,1.068,0,0,1-.1.378,1.007,1.007,0,0,1-.455.2,2.055,2.055,0,0,0-.5.194,1.594,1.594,0,0,0-.448.481c-.027.039-.055.078-.082.114l-.578,0Zm1.763-.007.078-.023a1.618,1.618,0,0,0,.85-.457,1.487,1.487,0,0,0,.28-.752v-.005a1.41,1.41,0,0,1,.111-.412,1.269,1.269,0,0,1,.255-.253l.009-.007a1.692,1.692,0,0,0,.543-.648,1.565,1.565,0,0,0,.05-.762v-.006a1.272,1.272,0,0,1,0-.426,1.148,1.148,0,0,1,.2-.31l.01-.013a1.676,1.676,0,0,0,.39-.707,1.607,1.607,0,0,0-.081-.76,1.273,1.273,0,0,1-.073-.416,1.2,1.2,0,0,1,.167-.357,1.679,1.679,0,0,0,.281-.74,1.638,1.638,0,0,0-.179-.739l0-.006a1.223,1.223,0,0,1-.126-.4,1.234,1.234,0,0,1,.126-.4l0-.006a1.638,1.638,0,0,0,.179-.739,1.667,1.667,0,0,0-.281-.74,1.2,1.2,0,0,1-.167-.358,1.242,1.242,0,0,1,.072-.413,1.614,1.614,0,0,0,.082-.761,1.676,1.676,0,0,0-.39-.706,1.246,1.246,0,0,1-.213-.323,1.283,1.283,0,0,1,0-.423,1.551,1.551,0,0,0-.049-.77A1.707,1.707,0,0,0,8.749,1.5a1.28,1.28,0,0,1-.266-.262A1.354,1.354,0,0,1,8.373.825,1.5,1.5,0,0,0,8.092.07C8.077.052,8.061.035,8.044.017l.314,0L8.5.1l.037.02a2.576,2.576,0,0,1,.69.463,1.051,1.051,0,0,1,.1.375,2.037,2.037,0,0,0,.2.669,1.822,1.822,0,0,0,.448.481,1.137,1.137,0,0,1,.315.335,1.075,1.075,0,0,1,0,.393v.006a1.831,1.831,0,0,0,.023.72,1.756,1.756,0,0,0,.354.595,1.144,1.144,0,0,1,.234.373,1.083,1.083,0,0,1-.068.4,1.8,1.8,0,0,0-.1.724A1.757,1.757,0,0,0,11,6.293a1.146,1.146,0,0,1,.177.4,1.1,1.1,0,0,1-.119.388,1.792,1.792,0,0,0-.19.707,1.781,1.781,0,0,0,.186.7l0,.007a1.1,1.1,0,0,1,.119.387,1.127,1.127,0,0,1-.175.393,1.788,1.788,0,0,0-.267.653,1.81,1.81,0,0,0,.094.719l0,0a1.09,1.09,0,0,1,.068.4,1.144,1.144,0,0,1-.234.373,1.756,1.756,0,0,0-.354.595,1.831,1.831,0,0,0-.023.72v.005a1.062,1.062,0,0,1,0,.4,1.118,1.118,0,0,1-.314.334,1.816,1.816,0,0,0-.448.481,2.008,2.008,0,0,0-.2.666,1.057,1.057,0,0,1-.1.377,1,1,0,0,1-.452.2,2.078,2.078,0,0,0-.509.194,1.5,1.5,0,0,0-.432.471l-.084.12-.587,0Zm1.774-.005.015,0L9,15.956a1.618,1.618,0,0,0,.851-.457,1.484,1.484,0,0,0,.28-.75,1.432,1.432,0,0,1,.111-.419,1.344,1.344,0,0,1,.265-.26,1.692,1.692,0,0,0,.543-.648,1.572,1.572,0,0,0,.05-.767,1.3,1.3,0,0,1,0-.427,1.225,1.225,0,0,1,.213-.323l0-.005a1.674,1.674,0,0,0,.385-.7,1.607,1.607,0,0,0-.081-.76,1.3,1.3,0,0,1-.074-.416,1.255,1.255,0,0,1,.167-.357,1.68,1.68,0,0,0,.281-.739,1.634,1.634,0,0,0-.183-.745,1.259,1.259,0,0,1-.125-.4,1.242,1.242,0,0,1,.123-.393l0-.005a1.644,1.644,0,0,0,.182-.743,1.679,1.679,0,0,0-.281-.74,1.224,1.224,0,0,1-.167-.358,1.278,1.278,0,0,1,.073-.412,1.621,1.621,0,0,0,.082-.762,1.7,1.7,0,0,0-.387-.7,1.244,1.244,0,0,1-.216-.326,1.221,1.221,0,0,1,0-.413V2.917a1.578,1.578,0,0,0-.05-.769A1.692,1.692,0,0,0,10.5,1.5a1.312,1.312,0,0,1-.264-.26,1.369,1.369,0,0,1-.111-.414A1.518,1.518,0,0,0,9.851.074,3.664,3.664,0,0,1,11.889,2.24,13.917,13.917,0,0,1,13,8a13.782,13.782,0,0,1-1.128,5.757c-.671,1.409-1.559,2.218-2.438,2.218h-.5Z" transform="translate(0)" fill="#8a8a8f"/>
</svg>
