<svg xmlns="http://www.w3.org/2000/svg" width="15" height="16" viewBox="0 0 15 16">
  <path id="Icon_Vacuum" data-name="Icon Vacuum" d="M14.4,16H11.158a.766.766,0,0,1,0-1.49H14.4a.766.766,0,0,1,0,1.49Zm-.983-1.788H12.176a2.583,2.583,0,0,0-.806-1.49c-.1-.1-.209-.2-.328-.3H1.819l-.216,0c-.115,0-.17-.008-.178-.025V9.867c.008-.153.182-.921.38-1.678-.09-.056-.176-.112-.265-.172C.421,7.263-.066,6.489.007,5.583c.121-1.5,1.829-2.524,2.959-3.2l.069-.041a.536.536,0,0,1,.1-.04c.038-.012.061-.02.061-.028v-.14a.7.7,0,0,1,.79-.734h.183C5.661.145,8.365,0,10.269,0c1.583,0,2.668.046,3.3.662.613.594.852,1.719.852,4.014H3.02a6.785,6.785,0,0,1,.054-.861C2.27,4.321,1.341,4.994,1.3,5.73a1.218,1.218,0,0,0,.571,1l.021.015.021.015c.056.043.114.084.171.124l.082.057A2.423,2.423,0,0,1,2.5,6.167H14.616a17.649,17.649,0,0,1,.377,3.7L15,12.392c-.021.016-.091.034-.309.034H12.755c.081.114.142.208.194.3a3.467,3.467,0,0,1,.472,1.488ZM9.789.907,9.58.91a4.985,4.985,0,0,0-2.974.775.416.416,0,0,0-.132.3c.016.452.9.514,1.847.514.4,0,.843-.013,1.311-.026.316-.009.614-.013.9-.017,1.068-.014,1.911-.026,2.156-.283a.256.256,0,0,0,.073-.192C12.744,1.472,11.469.907,9.789.907ZM14.7,5.878h0a.131.131,0,0,0-.045-.009H2.6V4.974H14.7v.9Z" transform="translate(0 0)" fill="#8a8a8f"/>
</svg>
