<svg xmlns="http://www.w3.org/2000/svg" width="30" height="36" viewBox="0 0 30 36">
  <g id="Icon" transform="translate(0 0)">
    <path id="Icon-2" data-name="Icon" d="M30,15.255A15.111,15.111,0,0,0,14.039.031,15.308,15.308,0,0,0,9.318,29.375c.044.021.079.041.127.062,2.505,1.15,4.123,4.2,4.934,6.145a.671.671,0,0,0,1.243,0c.811-1.943,2.429-5,4.934-6.145.047-.021.083-.041.127-.062A15.259,15.259,0,0,0,30,15.255" fill="#0b4b89"/>
    <path id="Icon_Car" data-name="Icon Car" d="M11.556,16a.723.723,0,0,1-.722-.721v-.721H2.166v.721A.723.723,0,0,1,1.444,16H.722A.723.723,0,0,1,0,15.279V9.514L1.5,5.2a1.083,1.083,0,0,1,1.025-.728h7.945A1.077,1.077,0,0,1,11.5,5.2L13,9.514v5.765a.722.722,0,0,1-.721.721ZM9.027,1.946C9.027,1.225,10.111,0,10.111,0s1.083,1.225,1.083,1.946a1.084,1.084,0,0,1-2.167,0Zm-3.61,0C5.417,1.225,6.5,0,6.5,0S7.582,1.225,7.582,1.946a1.083,1.083,0,0,1-2.165,0Zm-3.612,0C1.805,1.225,2.888,0,2.888,0S3.973,1.225,3.973,1.946a1.084,1.084,0,0,1-2.167,0Z" transform="translate(9 7)" fill="#fff"/>
  </g>
</svg>
